<svg data-name="Layer 1" id="Layer_1" viewbox="0 0 32 24" xmlns="http://www.w3.org/2000/svg">
  <defs>
    <style>.cls-1{fill:none;}.cls-2{fill:#0094ff;}</style>
  </defs>
  <title>BR_Desktop-Record-2</title>
  <g id="Plugin---Settings-Expanded"  transform="translate(11, 14)">
    <polygon class="cls-1" points="14.87 23.68 14.18 24.91 19.81 24.91 19.11 23.68 14.87 23.68"></polygon>
    <polygon class="cls-1" points="30.69 3.34 3.28 3.28 3.28 15.17 30.69 15.17 30.69 3.34"></polygon>
    <polygon class="cls-1" points="3.31 20.34 20.09 20.4 30.72 20.4 30.72 18.48 3.31 18.48 3.31 20.34"></polygon>
    <path class="cls-2" scale="0.5" d="M31.13,0H2.87A2.88,2.88,0,0,0,0,2.87v18a2.88,2.88,0,0,0,2.87,2.87h8.22l-.42.74a3.9,3.9,0,0,0-.58,1.24,2.16,2.16,0,0,0,2.11,2.52h9.3a2.87,2.87,0,0,0,1.23-.2,2.14,2.14,0,0,0,.87-.79,2.2,2.2,0,0,0,.32-.85,2.5,2.5,0,0,0-.4-1.66l-.27-.45L23,23.85s-.08-.17-.1-.17h8.22A2.88,2.88,0,0,0,34,20.81v-18A2.86,2.86,0,0,0,31.13,0ZM3.28,3.28l27.41.06V15.17H3.28Zm10.9,21.63.68-1.23h4.25l.7,1.23ZM30.72,20.4H20.09L3.31,20.34V18.48H30.72Z"></path>
  </g>
</svg>